<svg xmlns="http://www.w3.org/2000/svg" xmlns:xlink="http://www.w3.org/1999/xlink" version="1.1" x="0px" y="0px" viewBox="0 0 100 125" enable-background="new 0 0 100 100" xml:space="preserve"><g><path fill="none" stroke="#000000" stroke-width="2" stroke-miterlimit="10" d="M29.643,59.047"/><path fill="none" stroke="#000000" stroke-width="2" stroke-miterlimit="10" d="M70.643,59.047"/><polygon fill="none" stroke="#000000" stroke-width="2" stroke-miterlimit="10" points="71,3 89,3 89,59.53 49.301,98.859    9,60.617 9,59.53 9,3 30,3  "/><path d="M36.797,86.121c3.933-2.415,8.599-3.814,13.603-3.814c4.87,0,9.422,1.326,13.287,3.624L50.164,98.859L36.797,86.121z"/><path fill="none" stroke="#000000" stroke-width="2" stroke-miterlimit="10" d="M69,3v48.797v1.038   c-6,2.212-12.278,3.433-19.329,3.433c-7.129,0-14.208-1.249-20.389-3.506L29,51.797V3"/><path fill="none" stroke="#000000" stroke-width="2" stroke-miterlimit="10" d="M88.953,59.708   c-3.516-0.583-7.021-1.528-10.466-2.855c-3.458-1.331-6.687-2.982-9.661-4.904"/><path fill="none" stroke="#000000" stroke-width="2" stroke-miterlimit="10" d="M8.826,59.708   c3.516-0.583,7.021-1.528,10.466-2.855c3.458-1.331,6.687-2.982,9.661-4.904"/></g></svg>